<svg xmlns="http://www.w3.org/2000/svg" viewBox="0 0 100 100">
  <rect width="100" height="100" rx="20" fill="#15130f"/>
  <path d="M50 24 C42 17 28 16 20 20 L20 76 C28 72 42 73 50 80 C58 73 72 72 80 76 L80 20 C72 16 58 17 50 24 Z" fill="#221e18" stroke="#d9a441" stroke-width="3.5" stroke-linejoin="round"/>
  <line x1="50" y1="24" x2="50" y2="80" stroke="#d9a441" stroke-width="2.5"/>
  <path d="M35 60 l3.5-8 3.5 8 -8.5-5 h10 z" fill="#d64545"/>
  <circle cx="64" cy="42" r="3" fill="#a98ad6"/>
  <path d="M63 56 q5 -3 8 2" stroke="#7aa5d6" stroke-width="2.5" fill="none" stroke-linecap="round"/>
  <path d="M30 36 q4 -4 9 -1" stroke="#7fb069" stroke-width="2.5" fill="none" stroke-linecap="round"/>
  <g stroke="#f0e6d2" stroke-width="2" stroke-linecap="round">
    <line x1="68" y1="24" x2="68" y2="30"/><line x1="65" y1="27" x2="71" y2="27"/>
  </g>
</svg>
